<svg xmlns="http://www.w3.org/2000/svg" xmlns:xlink="http://www.w3.org/1999/xlink" width="1097.226" height="540.894" viewBox="0 0 1097.226 540.894"><defs><style>.a{fill:#f5b5cc;}.b,.h{fill:none;}.b{stroke:#232e69;stroke-miterlimit:10;}.c{fill:#fff;}.d{fill:url(#a);}.e{fill:url(#d);}.f{fill:#eb1e69;}.g{fill:#d1e8ff;}.h{opacity:0.1;}.i{fill:url(#e);}.j{fill:#ebebff;}.k{fill:url(#j);}.l{fill:url(#m);}.m{filter:url(#n);}.n{filter:url(#k);}.o{filter:url(#h);}.p{filter:url(#f);}.q{filter:url(#b);}</style><linearGradient id="a" x1="0.5" x2="0.5" y2="1" gradientUnits="objectBoundingBox"><stop offset="0" stop-color="#d1e8ff"/><stop offset="1" stop-color="#fff7fa"/></linearGradient><filter id="b" x="260.074" y="25.261" width="722.81" height="515.633" filterUnits="userSpaceOnUse"><feOffset input="SourceAlpha"/><feGaussianBlur stdDeviation="4" result="c"/><feFlood flood-opacity="0.161"/><feComposite operator="in" in2="c"/><feComposite in="SourceGraphic"/></filter><linearGradient id="d" x1="0.5" x2="0.5" y2="1.784" gradientUnits="objectBoundingBox"><stop offset="0" stop-color="#fdfdfd"/><stop offset="1" stop-color="#d1e8ff"/></linearGradient><linearGradient id="e" x1="1.625" y1="-0.701" x2="0.257" y2="0.728" gradientUnits="objectBoundingBox"><stop offset="0" stop-color="#d1e8ff"/><stop offset="1" stop-color="#fdf8fa"/></linearGradient><filter id="f" x="746.596" y="0" width="252.996" height="159.358" filterUnits="userSpaceOnUse"><feOffset input="SourceAlpha"/><feGaussianBlur stdDeviation="2" result="g"/><feFlood flood-opacity="0.161"/><feComposite operator="in" in2="g"/><feComposite in="SourceGraphic"/></filter><filter id="h" x="860.82" y="377.409" width="136.777" height="101.739" filterUnits="userSpaceOnUse"><feOffset input="SourceAlpha"/><feGaussianBlur stdDeviation="2" result="i"/><feFlood flood-opacity="0.161"/><feComposite operator="in" in2="i"/><feComposite in="SourceGraphic"/></filter><linearGradient id="j" x1="0.938" y1="0.928" x2="-0.878" y2="-0.522" gradientUnits="objectBoundingBox"><stop offset="0" stop-color="#fff8fb"/><stop offset="1" stop-color="#d1e8ff"/></linearGradient><filter id="k" x="202.61" y="322.251" width="260.192" height="159.701" filterUnits="userSpaceOnUse"><feOffset dy="3" input="SourceAlpha"/><feGaussianBlur stdDeviation="2" result="l"/><feFlood flood-opacity="0.161"/><feComposite operator="in" in2="l"/><feComposite in="SourceGraphic"/></filter><linearGradient id="m" x1="0.046" y1="0.036" x2="1.647" y2="1.571" gradientUnits="objectBoundingBox"><stop offset="0" stop-color="#fff4f8"/><stop offset="1" stop-color="#d1e8ff"/></linearGradient><filter id="n" x="206.532" y="85.246" width="139.614" height="133.342" filterUnits="userSpaceOnUse"><feOffset input="SourceAlpha"/><feGaussianBlur stdDeviation="2" result="o"/><feFlood flood-opacity="0.161"/><feComposite operator="in" in2="o"/><feComposite in="SourceGraphic"/></filter></defs><g transform="translate(-107.297 -524.016)"><path class="a" d="M0,0H17.055s-1.344,41.343,0,95.382S24,229.241,24,229.241L5.457,231s.846-69.63,0-110.836S0,0,0,0Z" transform="matrix(0.588, 0.809, -0.809, 0.588, 1190.416, 673.902)"/><path class="b" d="M0,35.687s183.044-71.374,183.044,0S42.355,182.082,462,76.844" transform="translate(106.229 861.067) rotate(-21)"/><path class="c" d="M0,6.05V43.109c0,11.624,42-5.417,42-16.8C42,17.768,15.819,0,7.91,0S0,6.05,0,6.05Z" transform="translate(167 836)"/><g transform="translate(10442.111 6979.598)"><g class="q" transform="matrix(1, 0, 0, 1, -10334.81, -6455.58)"><path class="d" d="M1122.21,805.36v457.174a17.2,17.2,0,0,1-17.2,17.2H441.441a18.017,18.017,0,0,1-18.042-18.042V806.141A18.017,18.017,0,0,1,441.441,788.1H1104.95A17.222,17.222,0,0,1,1122.21,805.36Z" transform="translate(-151.33 -750.84)"/></g><path class="e" d="M1122.21,805.36v27.123H423.4V805.36a17.247,17.247,0,0,1,17.2-17.26H1104.95A17.222,17.222,0,0,1,1122.21,805.36Z" transform="translate(-10486.141 -7206.42)"/><circle class="f" cx="7.998" cy="7.998" r="7.998" transform="translate(-10031.948 -6404.128)"/><path class="g" d="M533.5,811.6a8,8,0,1,0,8,8A7.995,7.995,0,0,0,533.5,811.6Z" transform="translate(-10526.839 -7215.788)"/><path class="g" d="M584.3,827.7a8,8,0,1,1,8-8A7.995,7.995,0,0,1,584.3,827.7Zm0-14.554a6.495,6.495,0,1,0,6.495,6.495A6.506,6.506,0,0,0,584.3,813.143Z" transform="translate(-10547.088 -7215.827)"/><path class="c" d="M812.984,828H663.9a8.9,8.9,0,0,1,0-17.8H812.924a8.9,8.9,0,0,1,.06,17.8ZM663.9,811.643a7.4,7.4,0,0,0,0,14.794H812.924a7.4,7.4,0,1,0,0-14.794Z" transform="translate(-10578.459 -7215.23)"/><path class="f" d="M1060,1129.658A130.35,130.35,0,1,1,916.45,1000l4.33,42.758a87.34,87.34,0,1,0,92.734,62.665l41.315-11.908A127.744,127.744,0,0,1,1060,1129.658Z" transform="translate(-10635.98 -7290.887)"/><circle class="c" cx="105.243" cy="105.243" r="105.243" transform="translate(-9811.542 -6266.471)"/><path class="g" d="M946.342,1040.6a105.242,105.242,0,1,0,105.243,105.242A105.281,105.281,0,0,0,946.342,1040.6Zm0,179.814a74.572,74.572,0,1,1,74.572-74.572A74.559,74.559,0,0,1,946.342,1220.414Z" transform="translate(-10652.642 -7307.071)"/><g transform="translate(-9586.42 -6453.671)"><rect class="h" width="256.504" height="162.784"/><g transform="translate(4.201 4.089)"><g class="p" transform="matrix(1, 0, 0, 1, -752.6, -6)"><path class="i" d="M1526.429,787.158H1346.768A30.692,30.692,0,0,1,1316.1,756.49V670.468a30.692,30.692,0,0,1,30.668-30.668h179.661a30.692,30.692,0,0,1,30.667,30.668V756.49A30.626,30.626,0,0,1,1526.429,787.158Z" transform="translate(-563.5 -633.8)"/></g></g></g><path class="g" d="M1380.957,856.689h0a5.563,5.563,0,0,1-5.557-5.557v-9.275a5.563,5.563,0,0,1,5.557-5.557h0a5.563,5.563,0,0,1,5.557,5.557v9.275A5.563,5.563,0,0,1,1380.957,856.689Z" transform="translate(-10903.006 -7191.453)"/><path class="g" d="M1435.256,843.2h0a5.563,5.563,0,0,1-5.557-5.557V819.057a5.563,5.563,0,0,1,5.557-5.557h0a5.563,5.563,0,0,1,5.557,5.557v18.591A5.563,5.563,0,0,1,1435.256,843.2Z" transform="translate(-10935.118 -7177.969)"/><path class="g" d="M1489.556,854.2h0a5.562,5.562,0,0,1-5.557-5.557V837.657a5.562,5.562,0,0,1,5.557-5.557h0a5.562,5.562,0,0,1,5.557,5.557v10.991A5.562,5.562,0,0,1,1489.556,854.2Z" transform="translate(-10967.231 -7188.969)"/><path class="g" d="M1543.856,831.79h0a5.563,5.563,0,0,1-5.557-5.557V799.757a5.563,5.563,0,0,1,5.557-5.557h0a5.563,5.563,0,0,1,5.557,5.557v26.476A5.589,5.589,0,0,1,1543.856,831.79Z" transform="translate(-10999.347 -7166.555)"/><path class="g" d="M1598.057,817.419h0a5.563,5.563,0,0,1-5.557-5.557V775.457a5.563,5.563,0,0,1,5.557-5.557h0a5.563,5.563,0,0,1,5.557,5.557v36.405A5.563,5.563,0,0,1,1598.057,817.419Z" transform="translate(-11031.4 -7152.183)"/><path class="g" d="M1652.356,796.9h0a5.563,5.563,0,0,1-5.557-5.557V740.757a5.563,5.563,0,0,1,5.557-5.557h0a5.563,5.563,0,0,1,5.557,5.557v50.624A5.554,5.554,0,0,1,1652.356,796.9Z" transform="translate(-11063.514 -7131.661)"/><path class="f" d="M1706.656,765.256h0a5.562,5.562,0,0,1-5.557-5.557V687.257a5.562,5.562,0,0,1,5.557-5.557h0a5.563,5.563,0,0,1,5.557,5.557V759.7A5.563,5.563,0,0,1,1706.656,765.256Z" transform="translate(-11095.628 -7100.021)"/><path class="g" d="M1380.792,718.132h0a5.37,5.37,0,0,1-5.392-5.392v-1.448a5.37,5.37,0,0,1,5.392-5.392h0a5.37,5.37,0,0,1,5.392,5.392v1.448A5.37,5.37,0,0,1,1380.792,718.132Z" transform="translate(-10919.007 -7121.411)"/><path class="g" d="M1501.746,720.5h-69.8a1.556,1.556,0,0,1-1.548-1.548h0a1.556,1.556,0,0,1,1.548-1.548h69.8a1.556,1.556,0,0,1,1.548,1.548h0A1.556,1.556,0,0,1,1501.746,720.5Z" transform="translate(-10946.547 -7127.169)"/><g class="o" transform="matrix(1, 0, 0, 1, -10334.81, -6455.58)"><path class="g" d="M1386.737,1445.139h-88.7c-9.982,0-18.04-6.089-18.04-13.631v-62.476c0-7.543,8.058-13.631,18.04-13.631h88.7c9.982,0,18.04,6.089,18.04,13.631v62.476C1404.777,1439,1396.719,1445.139,1386.737,1445.139Z" transform="translate(-413.18 -971.99)"/></g><rect class="c" width="69.881" height="4.992" transform="translate(-9448.453 -6040.601)"/><rect class="c" width="69.881" height="4.992" transform="translate(-9448.453 -6025.565)"/><path class="g" d="M605.448,1132.505H533.042c-9.983,0-18.042-6.792-18.042-15.207V993.107c0-8.415,8.059-15.207,18.042-15.207h72.407c9.983,0,18.042,6.793,18.042,15.207V1117.3C623.49,1125.662,615.431,1132.505,605.448,1132.505Z" transform="translate(-10492.704 -7311.708)"/><rect class="c" width="71.144" height="65.13" transform="translate(-9961.165 -6307.287)"/><rect class="j" width="1.503" height="96.462" transform="translate(-9961.652 -6306.674) rotate(-47.525)"/><rect class="j" width="96.462" height="1.503" transform="matrix(0.738, -0.675, 0.675, 0.738, -9961.704, -6242.61)"/><g transform="translate(-10131.111 -6135.274)"><rect class="h" width="266.438" height="165.899"/><g transform="translate(4.907 4.943)"><g class="n" transform="matrix(1, 0, 0, 1, -208.61, -325.25)"><path class="k" d="M401.109,1250.2H225.083c-19.906,0-36.083-14.613-36.083-32.593v-82.515c0-17.98,16.177-32.593,36.083-32.593H401.109c19.906,0,36.083,14.613,36.083,32.593v82.515C437.192,1235.588,421.075,1250.2,401.109,1250.2Z" transform="translate(19.61 -777.25)"/></g></g></g><path class="g" d="M281.5,1248.981l-33.2-31.212L232.723,1247l-1.323-.722,16.478-30.911,32.956,30.911,22.071-64.228,41.616,45.646,26.4-10.765L419.874,1153l1.2.9-49.193,64.288L344.1,1229.5l-.361-.361-40.233-44.2Z" transform="translate(-10327.921 -7260.053)"/><circle class="f" cx="4.15" cy="4.15" r="4.15" transform="translate(-10083.831 -6047.757)"/><circle class="f" cx="4.15" cy="4.15" r="4.15" transform="translate(-10051.115 -6017.328)"/><circle class="f" cx="4.15" cy="4.15" r="4.15" transform="translate(-10028.624 -6080.473)"/><rect class="g" width="105.243" height="1.503" transform="translate(-10050.515 -6111.383)"/><g transform="translate(-10125.75 -6367.771)"><rect class="h" width="140.409" height="134.045"/><g transform="translate(3.468 3.434)"><g class="m" transform="matrix(1, 0, 0, 1, -212.53, -91.25)"><path class="l" d="M430.16,550.342H353.053A25.273,25.273,0,0,1,327.8,525.089V454.253A25.273,25.273,0,0,1,353.053,429H430.16a25.273,25.273,0,0,1,25.253,25.253v70.836A25.273,25.273,0,0,1,430.16,550.342Z" transform="translate(-115.27 -337.75)"/></g></g></g><path class="g" d="M425.812,549.723,413.227,515a36.959,36.959,0,1,0,45.33,17.719Z" transform="translate(-10485.464 -6843.14)"/><path class="f" d="M503.73,498.508a36.971,36.971,0,0,0-45.33-17.719l12.585,34.723Z" transform="translate(-10525.713 -6822.06)"/></g></g></svg>