<svg width="53" height="27" viewBox="0 0 53 27" fill="none" xmlns="http://www.w3.org/2000/svg">
<path d="M1.65621 3.56247H51.3437C52.2579 3.56247 52.9999 2.82042 52.9999 1.90627C52.9999 0.991982 52.2578 0.250061 51.3437 0.250061H1.65621C0.74192 0.250061 0 0.992119 0 1.90627C0 2.82042 0.742058 3.56247 1.65621 3.56247Z" fill="#ec1e69"/>
<path d="M51.3437 11.8438H1.65621C0.74192 11.8438 0 12.5858 0 13.5C0 14.4141 0.742058 15.1562 1.65621 15.1562H51.3437C52.2579 15.1562 52.9999 14.4141 52.9999 13.5C52.9999 12.5858 52.2579 11.8438 51.3437 11.8438Z" fill="#ec1e69"/>
<path d="M51.3437 23.4375H18.2187C17.3044 23.4375 16.5625 24.1796 16.5625 25.0937C16.5625 26.008 17.3046 26.7499 18.2187 26.7499H51.3437C52.2579 26.7499 52.9999 26.0079 52.9999 25.0937C53 24.1794 52.2579 23.4375 51.3437 23.4375Z" fill="#ec1e69"/>
</svg>
